<svg width="192" height="192" viewBox="0 0 192 192" fill="none" xmlns="http://www.w3.org/2000/svg">
<rect width="192" height="192" rx="24" fill="#2563EB"/>
<path d="M96 48C78.3269 48 64 62.3269 64 80V88H56C51.5817 88 48 91.5817 48 96V136C48 140.418 51.5817 144 56 144H136C140.418 144 144 140.418 144 136V96C144 91.5817 140.418 88 136 88H128V80C128 62.3269 113.673 48 96 48ZM96 56C109.255 56 120 66.7452 120 80V88H72V80C72 66.7452 82.7452 56 96 56ZM56 96H136V136H56V96ZM96 104C91.5817 104 88 107.582 88 112C88 116.418 91.5817 120 96 120C100.418 120 104 116.418 104 112C104 107.582 100.418 104 96 104Z" fill="white"/>
</svg>
